<svg width="40" height="40" viewBox="0 0 40 40" fill="none" xmlns="http://www.w3.org/2000/svg">
<rect width="40" height="40" rx="20" fill="#E9E5DA"/>
<path d="M20.6 25.7C21.1221 26.0916 21.8375 26.1006 22.3694 25.7224C22.9012 25.3441 23.1274 24.6654 22.9289 24.0437C22.7304 23.422 22.1526 23 21.5 23H12.5M24.125 17C24.654 16.2946 25.6031 16.0531 26.4049 16.4199C27.2068 16.7867 27.6447 17.6626 27.457 18.5241C27.2693 19.3856 26.5067 20 25.625 20H12.5M18.35 14.3C18.8721 13.9084 19.5875 13.8994 20.1193 14.2776C20.6512 14.6559 20.8774 15.3346 20.6789 15.9563C20.4804 16.578 19.9026 17 19.25 17H12.5" stroke="#3E4A3F" stroke-width="1.5" stroke-linecap="round" stroke-linejoin="round"/>
</svg>
