<svg width="40" height="40" viewBox="0 0 40 40" fill="none" xmlns="http://www.w3.org/2000/svg">
<rect width="40" height="40" rx="20" fill="#E9E5DA"/>
<g clip-path="url(#clip0_362_2530)">
<path d="M20 24.5V14.75M22.25 20.75C20.9172 20.3604 20.0009 19.1386 20 17.75C19.9992 19.1386 19.0829 20.3604 17.75 20.75M24.1985 15.875C24.6715 15.0559 24.5817 14.0283 23.9736 13.3037C23.3656 12.5791 22.3693 12.3121 21.4804 12.6356C20.5916 12.9592 20 13.8041 20 14.75C20.0001 13.8041 19.4085 12.9592 18.5196 12.6356C17.6307 12.3121 16.6344 12.5791 16.0264 13.3037C15.4184 14.0283 15.3285 15.0559 15.8015 15.875" stroke="#3E4A3F" stroke-width="1.5" stroke-linecap="round" stroke-linejoin="round"/>
<path d="M24.4978 14.8438C25.3911 15.0734 26.129 15.7012 26.4989 16.5461C26.8688 17.391 26.8295 18.3591 26.3923 19.1712" stroke="#3E4A3F" stroke-width="1.5" stroke-linecap="round" stroke-linejoin="round"/>
<path d="M24.5 24.5C25.8578 24.4999 27.0462 23.5879 27.3976 22.2764C27.7491 20.9649 27.1758 19.5809 26 18.902" stroke="#3E4A3F" stroke-width="1.5" stroke-linecap="round" stroke-linejoin="round"/>
<path d="M25.9753 24.1122C26.1185 25.2205 25.6339 26.3165 24.7178 26.9563C23.8016 27.5962 22.6058 27.6738 21.6146 27.1577C20.6234 26.6417 20.0013 25.6175 20.0001 24.5C19.9989 25.6175 19.3767 26.6417 18.3855 27.1577C17.3943 27.6738 16.1985 27.5962 15.2823 26.9563C14.3662 26.3165 13.8816 25.2205 14.0248 24.1122" stroke="#3E4A3F" stroke-width="1.5" stroke-linecap="round" stroke-linejoin="round"/>
<path d="M15.4999 24.5C14.1421 24.4999 12.9537 23.5879 12.6023 22.2764C12.2508 20.9649 12.8241 19.5809 13.9999 18.902" stroke="#3E4A3F" stroke-width="1.5" stroke-linecap="round" stroke-linejoin="round"/>
<path d="M15.5022 14.8438C14.6089 15.0734 13.871 15.7012 13.5011 16.5461C13.1312 17.391 13.1705 18.3591 13.6077 19.1712" stroke="#3E4A3F" stroke-width="1.5" stroke-linecap="round" stroke-linejoin="round"/>
</g>
<defs>
<clipPath id="clip0_362_2530">
<rect width="18" height="18" fill="white" transform="translate(11 11)"/>
</clipPath>
</defs>
</svg>
