<svg width="14" height="14" viewBox="0 0 14 14" fill="none" xmlns="http://www.w3.org/2000/svg">
<path d="M9.02836 7.51904L9.91211 12.4925C9.93238 12.6125 9.8761 12.7324 9.77091 12.7934C9.66571 12.8545 9.53367 12.8438 9.43961 12.7667L7.35128 11.1993C7.14423 11.0446 6.86008 11.0446 6.65303 11.1993L4.5612 12.7661C4.46721 12.8431 4.33537 12.8538 4.23025 12.7929C4.12512 12.732 4.06873 12.6124 4.0887 12.4925L4.97186 7.51904" stroke="white" stroke-opacity="0.7" stroke-width="1.16667" stroke-linecap="round" stroke-linejoin="round"/>
<path d="M3.5 4.6665C3.5 6.59821 5.0683 8.1665 7 8.1665C8.9317 8.1665 10.5 6.59821 10.5 4.6665C10.5 2.7348 8.9317 1.1665 7 1.1665C5.0683 1.1665 3.5 2.7348 3.5 4.6665L3.5 4.6665" stroke="white" stroke-opacity="0.7" stroke-width="1.16667" stroke-linecap="round" stroke-linejoin="round"/>
</svg>
