<svg width="285" height="16" viewBox="0 0 285 16" fill="none" xmlns="http://www.w3.org/2000/svg">
<path d="M7.68324 1.53009C7.74284 1.40969 7.86556 1.3335 7.99991 1.3335C8.13426 1.3335 8.25698 1.40969 8.31658 1.53009L9.85658 4.64943C10.0622 5.06642 10.4598 5.35558 10.9199 5.42276L14.3639 5.92676C14.497 5.94605 14.6077 6.03925 14.6493 6.16716C14.6909 6.29508 14.6562 6.43552 14.5599 6.52943L12.0692 8.95476C11.7355 9.2795 11.5831 9.7478 11.6619 10.2068L12.2499 13.6334C12.2734 13.7665 12.2189 13.9013 12.1096 13.9808C12.0003 14.0602 11.8552 14.0703 11.7359 14.0068L8.65724 12.3881C8.24551 12.1716 7.75364 12.1716 7.34191 12.3881L4.26391 14.0068C4.14467 14.0699 3.99989 14.0596 3.89077 13.9802C3.78166 13.9009 3.72726 13.7663 3.75058 13.6334L4.33791 10.2074C4.41691 9.74825 4.26453 9.27965 3.93058 8.95476L1.43991 6.53009C1.34278 6.43628 1.30762 6.29532 1.34929 6.16689C1.39097 6.03845 1.50221 5.945 1.63591 5.92609L5.07924 5.42276C5.53981 5.35599 5.93798 5.06677 6.14391 4.64943L7.68324 1.53009" stroke="#AFC496" stroke-width="1.33333" stroke-linecap="round" stroke-linejoin="round"/>
<path d="M27.6832 1.53009C27.7428 1.40969 27.8656 1.3335 27.9999 1.3335C28.1343 1.3335 28.257 1.40969 28.3166 1.53009L29.8566 4.64943C30.0622 5.06642 30.4598 5.35558 30.9199 5.42276L34.3639 5.92676C34.497 5.94605 34.6077 6.03925 34.6493 6.16716C34.6909 6.29508 34.6562 6.43552 34.5599 6.52943L32.0692 8.95476C31.7355 9.2795 31.5831 9.7478 31.6619 10.2068L32.2499 13.6334C32.2734 13.7665 32.2189 13.9013 32.1096 13.9808C32.0003 14.0602 31.8552 14.0703 31.7359 14.0068L28.6572 12.3881C28.2455 12.1716 27.7536 12.1716 27.3419 12.3881L24.2639 14.0068C24.1447 14.0699 23.9999 14.0596 23.8908 13.9802C23.7817 13.9009 23.7273 13.7663 23.7506 13.6334L24.3379 10.2074C24.4169 9.74825 24.2645 9.27965 23.9306 8.95476L21.4399 6.53009C21.3428 6.43628 21.3076 6.29532 21.3493 6.16689C21.391 6.03845 21.5022 5.945 21.6359 5.92609L25.0792 5.42276C25.5398 5.35599 25.938 5.06677 26.1439 4.64943L27.6832 1.53009" stroke="#AFC496" stroke-width="1.33333" stroke-linecap="round" stroke-linejoin="round"/>
<path d="M47.6832 1.53009C47.7428 1.40969 47.8656 1.3335 47.9999 1.3335C48.1343 1.3335 48.257 1.40969 48.3166 1.53009L49.8566 4.64943C50.0622 5.06642 50.4598 5.35558 50.9199 5.42276L54.3639 5.92676C54.497 5.94605 54.6077 6.03925 54.6493 6.16716C54.6909 6.29508 54.6562 6.43552 54.5599 6.52943L52.0692 8.95476C51.7355 9.2795 51.5831 9.7478 51.6619 10.2068L52.2499 13.6334C52.2734 13.7665 52.2189 13.9013 52.1096 13.9808C52.0003 14.0602 51.8552 14.0703 51.7359 14.0068L48.6572 12.3881C48.2455 12.1716 47.7536 12.1716 47.3419 12.3881L44.2639 14.0068C44.1447 14.0699 43.9999 14.0596 43.8908 13.9802C43.7817 13.9009 43.7273 13.7663 43.7506 13.6334L44.3379 10.2074C44.4169 9.74825 44.2645 9.27965 43.9306 8.95476L41.4399 6.53009C41.3428 6.43628 41.3076 6.29532 41.3493 6.16689C41.391 6.03845 41.5022 5.945 41.6359 5.92609L45.0792 5.42276C45.5398 5.35599 45.938 5.06677 46.1439 4.64943L47.6832 1.53009" stroke="#AFC496" stroke-width="1.33333" stroke-linecap="round" stroke-linejoin="round"/>
<path d="M67.6832 1.53009C67.7428 1.40969 67.8656 1.3335 67.9999 1.3335C68.1343 1.3335 68.257 1.40969 68.3166 1.53009L69.8566 4.64943C70.0622 5.06642 70.4598 5.35558 70.9199 5.42276L74.3639 5.92676C74.497 5.94605 74.6077 6.03925 74.6493 6.16716C74.6909 6.29508 74.6562 6.43552 74.5599 6.52943L72.0692 8.95476C71.7355 9.2795 71.5831 9.7478 71.6619 10.2068L72.2499 13.6334C72.2734 13.7665 72.2189 13.9013 72.1096 13.9808C72.0003 14.0602 71.8552 14.0703 71.7359 14.0068L68.6572 12.3881C68.2455 12.1716 67.7536 12.1716 67.3419 12.3881L64.2639 14.0068C64.1447 14.0699 63.9999 14.0596 63.8908 13.9802C63.7817 13.9009 63.7273 13.7663 63.7506 13.6334L64.3379 10.2074C64.4169 9.74825 64.2645 9.27965 63.9306 8.95476L61.4399 6.53009C61.3428 6.43628 61.3076 6.29532 61.3493 6.16689C61.391 6.03845 61.5022 5.945 61.6359 5.92609L65.0792 5.42276C65.5398 5.35599 65.938 5.06677 66.1439 4.64943L67.6832 1.53009" stroke="#AFC496" stroke-width="1.33333" stroke-linecap="round" stroke-linejoin="round"/>
<path d="M87.6832 1.53009C87.7428 1.40969 87.8656 1.3335 87.9999 1.3335C88.1343 1.3335 88.257 1.40969 88.3166 1.53009L89.8566 4.64943C90.0622 5.06642 90.4598 5.35558 90.9199 5.42276L94.3639 5.92676C94.497 5.94605 94.6077 6.03925 94.6493 6.16716C94.6909 6.29508 94.6562 6.43552 94.5599 6.52943L92.0692 8.95476C91.7355 9.2795 91.5831 9.7478 91.6619 10.2068L92.2499 13.6334C92.2734 13.7665 92.2189 13.9013 92.1096 13.9808C92.0003 14.0602 91.8552 14.0703 91.7359 14.0068L88.6572 12.3881C88.2455 12.1716 87.7536 12.1716 87.3419 12.3881L84.2639 14.0068C84.1447 14.0699 83.9999 14.0596 83.8908 13.9802C83.7817 13.9009 83.7273 13.7663 83.7506 13.6334L84.3379 10.2074C84.4169 9.74825 84.2645 9.27965 83.9306 8.95476L81.4399 6.53009C81.3428 6.43628 81.3076 6.29532 81.3493 6.16689C81.391 6.03845 81.5022 5.945 81.6359 5.92609L85.0792 5.42276C85.5398 5.35599 85.938 5.06677 86.1439 4.64943L87.6832 1.53009" stroke="#AFC496" stroke-width="1.33333" stroke-linecap="round" stroke-linejoin="round"/>
</svg>
