<svg width="18" height="18" viewBox="0 0 18 18" fill="none" xmlns="http://www.w3.org/2000/svg">
<path d="M9 3.75C9 2.50819 10.0082 1.5 11.25 1.5C12.4918 1.5 13.5 2.50819 13.5 3.75C13.5 4.99181 12.4918 6 11.25 6M9 3.75C9 2.50819 7.99181 1.5 6.75 1.5C5.50819 1.5 4.5 2.50819 4.5 3.75C4.5 4.99181 5.50819 6 6.75 6M9 3.75V4.5M6.75 6C5.50819 6 4.5 7.00819 4.5 8.25C4.5 9.49181 5.50819 10.5 6.75 10.5C7.99181 10.5 9 9.49181 9 8.25M6.75 6H7.5M11.25 6C12.4918 6 13.5 7.00819 13.5 8.25C13.5 9.49181 12.4918 10.5 11.25 10.5C10.0082 10.5 9 9.49181 9 8.25M11.25 6H10.5M9 8.25V7.5" stroke="#6E5A4F" stroke-width="1.5" stroke-linecap="round" stroke-linejoin="round"/>
<path d="M7.5 6C7.5 6.82787 8.17213 7.5 9 7.5C9.82787 7.5 10.5 6.82787 10.5 6C10.5 5.17213 9.82787 4.5 9 4.5C8.17213 4.5 7.5 5.17213 7.5 6V6" stroke="#6E5A4F" stroke-width="1.5" stroke-linecap="round" stroke-linejoin="round"/>
<path d="M9 7.5V16.5M9 16.5C12.15 16.5 14.25 15.2497 14.25 12.75C11.1 12.75 9 14.0003 9 16.5M9 16.5C5.85 16.5 3.75 15.2497 3.75 12.75C6.9 12.75 9 14.0003 9 16.5" stroke="#6E5A4F" stroke-width="1.5" stroke-linecap="round" stroke-linejoin="round"/>
</svg>
