<svg width="18" height="18" viewBox="0 0 18 18" fill="none" xmlns="http://www.w3.org/2000/svg">
<path d="M6.75 1.5H11.25C11.6639 1.5 12 1.83606 12 2.25V3.75C12 4.16394 11.6639 4.5 11.25 4.5H6.75C6.33606 4.5 6 4.16394 6 3.75V2.25C6 1.83606 6.33606 1.5 6.75 1.5V1.5" stroke="#6E5A4F" stroke-width="1.5" stroke-linecap="round" stroke-linejoin="round"/>
<path d="M12 3H13.5C14.3279 3 15 3.67213 15 4.5V15C15 15.8279 14.3279 16.5 13.5 16.5H4.5C3.67213 16.5 3 15.8279 3 15V4.5C3 3.67213 3.67213 3 4.5 3H6M9 8.25H12M9 12H12M6 8.25H6.0075M6 12H6.0075" stroke="#6E5A4F" stroke-width="1.5" stroke-linecap="round" stroke-linejoin="round"/>
</svg>
