<svg width="36" height="36" viewBox="0 0 36 36" fill="none" xmlns="http://www.w3.org/2000/svg">
<rect width="36" height="36" rx="16" fill="#E3E0D5"/>
<path d="M18.833 26.3333H22.9997C23.9201 26.3333 24.6663 25.5871 24.6663 24.6667V14.6667C24.6676 14.1333 24.4558 13.6215 24.078 13.245L21.088 10.255C20.7115 9.87716 20.1997 9.66535 19.6663 9.66666H12.9997C12.0792 9.66666 11.333 10.4129 11.333 11.3333V14.0833" stroke="#3E4035" stroke-width="1.66667" stroke-linecap="round" stroke-linejoin="round"/>
<path d="M19.667 9.66667V13.8333C19.667 14.2936 20.0401 14.6667 20.5003 14.6667H24.667M14.4087 21.7325L15.4837 25.7992C15.5303 25.9574 15.4791 26.1282 15.3532 26.2348C15.2273 26.3414 15.0504 26.3637 14.902 26.2917L13.3662 25.5842C13.135 25.4714 12.8646 25.4717 12.6337 25.585L11.0954 26.2933C10.9471 26.3628 10.7718 26.3389 10.6475 26.2324C10.5232 26.1258 10.4728 25.9563 10.5187 25.7992L11.5937 21.7325" stroke="#3E4035" stroke-width="1.66667" stroke-linecap="round" stroke-linejoin="round"/>
<path d="M10.5 19.6667C10.5 21.0465 11.6202 22.1667 13 22.1667C14.3798 22.1667 15.5 21.0465 15.5 19.6667C15.5 18.2869 14.3798 17.1667 13 17.1667C11.6202 17.1667 10.5 18.2869 10.5 19.6667V19.6667" stroke="#3E4035" stroke-width="1.66667" stroke-linecap="round" stroke-linejoin="round"/>
</svg>
