<svg width="40" height="40" viewBox="0 0 40 40" fill="none" xmlns="http://www.w3.org/2000/svg">
<rect width="40" height="40" rx="20" fill="#E9E5DA"/>
<g clip-path="url(#clip0_362_2542)">
<path d="M22.5425 14.2925C22.7344 14.4847 23.0153 14.558 23.2767 14.4843C23.5381 14.4105 23.7392 14.2012 23.8025 13.937C24.0179 13.0402 24.8535 12.4333 25.773 12.5058C26.6924 12.5783 27.4226 13.3087 27.4948 14.2282C27.567 15.1477 26.9598 15.9831 26.063 16.1983C25.7988 16.2615 25.5895 16.4626 25.5157 16.724C25.4419 16.9854 25.5153 17.2663 25.7075 17.4583L26.9697 18.7198C27.3093 19.0593 27.5 19.5198 27.5 20C27.5 20.4802 27.3093 20.9407 26.9697 21.2803L25.7075 22.5425C25.5155 22.7347 25.2346 22.808 24.9732 22.7343C24.7118 22.6605 24.5107 22.4512 24.4475 22.187C24.232 21.2902 23.3964 20.6833 22.4769 20.7558C21.5575 20.8283 20.8273 21.5587 20.7551 22.4782C20.6829 23.3977 21.2901 24.2331 22.187 24.4483C22.4511 24.5115 22.6605 24.7126 22.7342 24.974C22.808 25.2354 22.7346 25.5163 22.5425 25.7083L21.2802 26.9698C20.9407 27.3093 20.4801 27.5001 20 27.5001C19.5198 27.5001 19.0592 27.3093 18.7197 26.9698L17.4575 25.7075C17.2655 25.5154 16.9846 25.442 16.7232 25.5158C16.4618 25.5895 16.2607 25.7989 16.1975 26.063C15.982 26.9598 15.1464 27.5668 14.2269 27.4942C13.3075 27.4217 12.5773 26.6913 12.5051 25.7718C12.4329 24.8524 13.0401 24.0169 13.937 23.8018C14.2011 23.7386 14.4105 23.5374 14.4842 23.276C14.558 23.0146 14.4846 22.7337 14.2925 22.5418L13.0302 21.2803C12.6907 20.9407 12.4999 20.4802 12.4999 20C12.4999 19.5198 12.6907 19.0593 13.0302 18.7198L14.2925 17.4575C14.4844 17.2654 14.7653 17.192 15.0267 17.2658C15.2881 17.3395 15.4892 17.5489 15.5525 17.813C15.7679 18.7098 16.6035 19.3168 17.523 19.2442C18.4424 19.1717 19.1726 18.4413 19.2448 17.5218C19.317 16.6024 18.7098 15.7669 17.813 15.5518C17.5488 15.4886 17.3395 15.2874 17.2657 15.026C17.1919 14.7646 17.2653 14.4837 17.4575 14.2918L18.7197 13.0303C19.0592 12.6907 19.5198 12.5 20 12.5C20.4801 12.5 20.9407 12.6907 21.2802 13.0303L22.5425 14.2925" stroke="#3E4A3F" stroke-width="1.5" stroke-linecap="round" stroke-linejoin="round"/>
</g>
<defs>
<clipPath id="clip0_362_2542">
<rect width="18" height="18" fill="white" transform="translate(11 11)"/>
</clipPath>
</defs>
</svg>
