<svg width="40" height="40" viewBox="0 0 40 40" fill="none" xmlns="http://www.w3.org/2000/svg">
<rect width="40" height="40" rx="20" fill="#E9E5DA"/>
<path d="M13.9999 21.5C13.7102 21.501 13.4458 21.3351 13.3208 21.0738C13.1957 20.8124 13.2324 20.5025 13.4149 20.2775L20.8399 12.6275C20.9546 12.4951 21.1457 12.4598 21.3002 12.5424C21.4547 12.625 21.5313 12.8036 21.4849 12.9725L20.0449 17.4875C19.9587 17.7182 19.9912 17.9765 20.1319 18.1786C20.2727 18.3807 20.5036 18.5008 20.7499 18.5H25.9999C26.2896 18.499 26.5539 18.665 26.679 18.9263C26.804 19.1876 26.7674 19.4975 26.5849 19.7225L19.1599 27.3725C19.0452 27.5049 18.8541 27.5403 18.6996 27.4576C18.5451 27.375 18.4684 27.1964 18.5149 27.0275L19.9549 22.5125C20.0411 22.2818 20.0085 22.0235 19.8678 21.8214C19.7271 21.6194 19.4961 21.4992 19.2499 21.5H13.9999" stroke="#3E4A3F" stroke-width="1.5" stroke-linecap="round" stroke-linejoin="round"/>
</svg>
