<svg width="40" height="40" viewBox="0 0 40 40" fill="none" xmlns="http://www.w3.org/2000/svg">
<rect width="40" height="40" rx="20" fill="#E9E5DA"/>
<g clip-path="url(#clip0_362_2521)">
<path d="M12.5 20C12.5 24.1394 15.8606 27.5 20 27.5C24.1394 27.5 27.5 24.1394 27.5 20C27.5 15.8606 24.1394 12.5 20 12.5C15.8606 12.5 12.5 15.8606 12.5 20V20" stroke="#3E4A3F" stroke-width="1.5" stroke-linecap="round" stroke-linejoin="round"/>
<path d="M15.5 20C15.5 22.4836 17.5164 24.5 20 24.5C22.4836 24.5 24.5 22.4836 24.5 20C24.5 17.5164 22.4836 15.5 20 15.5C17.5164 15.5 15.5 17.5164 15.5 20V20" stroke="#3E4A3F" stroke-width="1.5" stroke-linecap="round" stroke-linejoin="round"/>
<path d="M18.5 20C18.5 20.8279 19.1721 21.5 20 21.5C20.8279 21.5 21.5 20.8279 21.5 20C21.5 19.1721 20.8279 18.5 20 18.5C19.1721 18.5 18.5 19.1721 18.5 20V20" stroke="#3E4A3F" stroke-width="1.5" stroke-linecap="round" stroke-linejoin="round"/>
</g>
<defs>
<clipPath id="clip0_362_2521">
<rect width="18" height="18" fill="white" transform="translate(11 11)"/>
</clipPath>
</defs>
</svg>
